<svg xmlns="http://www.w3.org/2000/svg" width="960" height="960" viewBox="0 0 960 960" fill="none">
<path d="M 0 0 L 0 960" stroke="#C6DDFF" stroke-width="3" stroke-linecap="round" opacity="0.82"/>
<path d="M 0 0 L 960 0" stroke="#C6DDFF" stroke-width="3" stroke-linecap="round" opacity="0.82"/>
<path d="M 96 0 L 96 960" stroke="#C6DDFF" stroke-width="2" stroke-linecap="round" opacity="0.82"/>
<path d="M 0 96 L 960 96" stroke="#C6DDFF" stroke-width="2" stroke-linecap="round" opacity="0.82"/>
<path d="M 192 0 L 192 960" stroke="#C6DDFF" stroke-width="2" stroke-linecap="round" opacity="0.82"/>
<path d="M 0 192 L 960 192" stroke="#C6DDFF" stroke-width="2" stroke-linecap="round" opacity="0.82"/>
<path d="M 288 0 L 288 960" stroke="#C6DDFF" stroke-width="2" stroke-linecap="round" opacity="0.82"/>
<path d="M 0 288 L 960 288" stroke="#C6DDFF" stroke-width="2" stroke-linecap="round" opacity="0.82"/>
<path d="M 384 0 L 384 960" stroke="#C6DDFF" stroke-width="2" stroke-linecap="round" opacity="0.82"/>
<path d="M 0 384 L 960 384" stroke="#C6DDFF" stroke-width="2" stroke-linecap="round" opacity="0.82"/>
<path d="M 480 0 L 480 960" stroke="#C6DDFF" stroke-width="2" stroke-linecap="round" opacity="0.82"/>
<path d="M 0 480 L 960 480" stroke="#C6DDFF" stroke-width="2" stroke-linecap="round" opacity="0.82"/>
<path d="M 576 0 L 576 960" stroke="#C6DDFF" stroke-width="2" stroke-linecap="round" opacity="0.82"/>
<path d="M 0 576 L 960 576" stroke="#C6DDFF" stroke-width="2" stroke-linecap="round" opacity="0.82"/>
<path d="M 672 0 L 672 960" stroke="#C6DDFF" stroke-width="2" stroke-linecap="round" opacity="0.82"/>
<path d="M 0 672 L 960 672" stroke="#C6DDFF" stroke-width="2" stroke-linecap="round" opacity="0.82"/>
<path d="M 768 0 L 768 960" stroke="#C6DDFF" stroke-width="2" stroke-linecap="round" opacity="0.82"/>
<path d="M 0 768 L 960 768" stroke="#C6DDFF" stroke-width="2" stroke-linecap="round" opacity="0.82"/>
<path d="M 864 0 L 864 960" stroke="#C6DDFF" stroke-width="2" stroke-linecap="round" opacity="0.82"/>
<path d="M 0 864 L 960 864" stroke="#C6DDFF" stroke-width="2" stroke-linecap="round" opacity="0.82"/>
<path d="M 960 0 L 960 960" stroke="#C6DDFF" stroke-width="3" stroke-linecap="round" opacity="0.82"/>
<path d="M 0 960 L 960 960" stroke="#C6DDFF" stroke-width="3" stroke-linecap="round" opacity="0.82"/>
</svg>
