<svg xmlns="http://www.w3.org/2000/svg" viewBox="0 0 64 64" role="img">
  <title>Salvo anchor favicon</title>
  <rect width="64" height="64" rx="14" fill="#071224" />
  <g id="grid" stroke="#9fd2aa" stroke-width="1.5" opacity="0.34">
    <path d="M8 20h48M8 32h48M8 44h48" />
    <path d="M20 8v48M32 8v48M44 8v48" />
  </g>
  <rect x="9" y="9" width="46" height="46" rx="10" fill="none" stroke="#9fd2aa" stroke-width="3" opacity="0.92" />
  <g id="anchor" fill="none" stroke="#9fd2aa" stroke-linecap="round" stroke-linejoin="round">
    <circle cx="32" cy="16" r="5" stroke-width="4" />
    <path d="M32 21v27" stroke-width="5" />
    <path d="M22 28h20" stroke-width="5" />
    <path d="M19 39c1.9 8 7.1 13 13 13s11.1-5 13-13" stroke-width="5" />
    <path d="M17 44l2-6 6 2" stroke-width="4" />
    <path d="M47 44l-2-6-6 2" stroke-width="4" />
  </g>
  <circle cx="47" cy="19" r="3.5" fill="#c65d68" />
</svg>
